<svg width="63" height="40" viewBox="0 0 63 40" fill="none" xmlns="http://www.w3.org/2000/svg">
<path d="M12.4624 2.78414C13.8202 2.78414 16.2747 3.43361 20.256 7.35467L22.23 9.29824L24.1743 7.32352C26.9383 4.51514 29.8797 2.77099 31.8502 2.77099C34.5077 2.77099 36.6022 3.68011 38.6448 5.71784C40.569 7.63787 41.6304 10.1907 41.6304 12.9063C41.6318 15.6233 40.5724 18.1783 38.6268 20.1191C38.4682 20.2797 30.102 29.3065 23.0928 36.871C22.7625 37.1847 22.3852 37.231 22.1844 37.231C21.9864 37.231 21.6132 37.1867 21.2843 36.8807C19.5761 34.9807 7.19603 21.2151 5.75657 19.777C3.82962 17.8549 2.76951 15.3 2.76951 12.5837C2.77016 9.86809 3.83023 7.3159 5.75722 5.3938C7.63081 3.52155 9.82438 2.78414 12.4624 2.78414ZM12.4623 0.0145403C9.15059 0.0145403 6.23074 1.00532 3.79972 3.43361C-1.26657 8.48675 -1.26657 16.6813 3.79972 21.7372C5.24614 23.1843 19.2859 38.8021 19.2859 38.8021C20.0856 39.6026 21.136 40 22.1836 40C23.2319 40 24.2781 39.6026 25.0792 38.8021C25.0792 38.8021 40.4366 22.2268 40.6 22.0612C45.665 17.0032 45.665 8.80867 40.6 3.75558C38.0853 1.24563 35.2762 0 31.8495 0C28.5758 0 24.9255 2.61035 22.1988 5.37995C19.3863 2.611 15.8488 0.0145403 12.4623 0.0145403H12.4623Z" fill="#870DD9"/>
<path d="M61.3178 0C60.6278 0 60.0679 0.560077 60.0679 1.25008V19.6094C59.9554 18.8988 59.5429 18.2631 58.9204 17.8762L30.1817 0.430703C29.7856 0.184751 29.3286 0.054218 28.8623 0.053789C28.4373 0.0534458 26.7208 13.7933 26.3495 14.0002C25.5557 14.4408 26.3623 1.64625 26.3623 2.55375L26.323 37.4456C26.3228 37.8914 26.442 38.3291 26.668 38.7133C26.8941 39.0975 27.2188 39.4142 27.6086 39.6306C27.98 39.8372 28.3979 39.9457 28.8229 39.9456C29.2804 39.9456 29.7398 39.82 30.1423 39.5681L58.9204 22.1225C59.5429 21.7369 59.9553 21.1006 60.0678 20.39V38.75C60.0678 39.44 60.6278 40 61.3178 40C62.0078 40 62.5678 39.44 62.5678 38.75V1.25C62.5678 0.559999 62.0084 3.90625e-05 61.3178 0ZM28.8229 37.4457L28.8616 2.55445L57.6016 19.9994L28.8229 37.4457Z" fill="#870DD9"/>
</svg>
